<?xml version="1.0" encoding="UTF-8"?>
<svg version="1.1" xmlns="http://www.w3.org/2000/svg" width="230" height="103">
<path d="M0 0 C75.9 0 151.8 0 230 0 C230 33.99 230 67.98 230 103 C154.1 103 78.2 103 0 103 C0 69.01 0 35.02 0 0 Z " fill="#FDFDFD" transform="translate(0,0)"/>
<path d="M0 0 C3.26023324 0.22484367 4.93132641 0.5260489 7.625 2.25 C8.285 1.59 8.945 0.93 9.625 0.25 C15.94758065 -0.08870968 15.94758065 -0.08870968 18.625 1.25 C18.625 2.24 18.625 3.23 18.625 4.25 C15.655 3.755 15.655 3.755 12.625 3.25 C12.295 4.57 11.965 5.89 11.625 7.25 C15.915 7.25 20.205 7.25 24.625 7.25 C24.625 12.2 24.625 17.15 24.625 22.25 C25.615 22.25 26.605 22.25 27.625 22.25 C27.625 22.91 27.625 23.57 27.625 24.25 C15.625 24.25 3.625 24.25 -8.375 24.25 C-7.385 22.765 -7.385 22.765 -6.375 21.25 C-5.91584493 18.28157342 -5.91584493 18.28157342 -5.75 15.0625 C-5.67523438 13.97582031 -5.60046875 12.88914062 -5.5234375 11.76953125 C-5.47445312 10.93808594 -5.42546875 10.10664062 -5.375 9.25 C-6.365 9.25 -7.355 9.25 -8.375 9.25 C-8.375 8.59 -8.375 7.93 -8.375 7.25 C-7.385 7.25 -6.395 7.25 -5.375 7.25 C-5.436875 6.074375 -5.436875 6.074375 -5.5 4.875 C-5.30084863 0.69282128 -4.04606319 0.29970838 0 0 Z " fill="#E7E7E7" transform="translate(178.375,37.75)"/>
<path d="M0 0 C2.97 0 5.94 0 9 0 C9.64690922 1.6037331 10.29248764 3.20800306 10.9375 4.8125 C11.29714844 5.70582031 11.65679687 6.59914063 12.02734375 7.51953125 C12.73613486 9.3270909 13.3860247 11.15807409 14 13 C14.64995297 11.58521865 15.29478722 10.16808513 15.9375 8.75 C16.29714844 7.96109375 16.65679688 7.1721875 17.02734375 6.359375 C18.15875123 3.77731888 18.15875123 3.77731888 19 0 C21.97 0 24.94 0 28 0 C27.67 0.66 27.34 1.32 27 2 C26.90495475 3.4246028 26.8692714 4.85348167 26.8671875 6.28125 C26.86589844 7.12300781 26.86460938 7.96476562 26.86328125 8.83203125 C26.86908203 10.15267578 26.86908203 10.15267578 26.875 11.5 C26.87113281 12.38042969 26.86726563 13.26085938 26.86328125 14.16796875 C26.86521484 15.43060547 26.86521484 15.43060547 26.8671875 16.71875 C26.86831543 17.49154297 26.86944336 18.26433594 26.87060547 19.06054688 C26.87992914 21.08209199 26.87992914 21.08209199 28 23 C25.03 23 22.06 23 19 23 C19 22.34 19 21.68 19 21 C19.66 21 20.32 21 21 21 C20.67 16.05 20.34 11.1 20 6 C19.67386719 7.14339844 19.34773438 8.28679688 19.01171875 9.46484375 C18.57096014 10.95592076 18.12951844 12.44679597 17.6875 13.9375 C17.47416016 14.69224609 17.26082031 15.44699219 17.04101562 16.22460938 C16.45350149 18.18006686 15.73435295 20.09481954 15 22 C14.01 22.33 13.02 22.66 12 23 C10.02 17.39 8.04 11.78 6 6 C5.67 10.95 5.34 15.9 5 21 C5.99 21 6.98 21 8 21 C8 21.66 8 22.32 8 23 C5.36 23 2.72 23 0 23 C0 22.34 0 21.68 0 21 C0.99 21 1.98 21 3 21 C3 14.73 3 8.46 3 2 C2.01 2 1.02 2 0 2 C0 1.34 0 0.68 0 0 Z " fill="#0D0D0D" transform="translate(6,39)"/>
<path d="M0 0 C2.5 1.5 2.5 1.5 4 4 C4.58651804 8.61882953 4.57342659 10.85314682 2.5 15 C-0.54054031 17.43243225 -2.2821575 17.69390213 -6.09375 17.40234375 C-8 17 -8 17 -10.5 15.625 C-12.75975802 11.67042347 -13.00769037 7.43828332 -12 3 C-8.38977815 -0.61022185 -4.85674037 -0.8658533 0 0 Z " fill="#161616" transform="translate(82,45)"/>
<path d="M0 0 C2.5 1.5 2.5 1.5 4 4 C4.58651804 8.61882953 4.57342659 10.85314682 2.5 15 C-0.54054031 17.43243225 -2.2821575 17.69390213 -6.09375 17.40234375 C-8 17 -8 17 -10.5 15.625 C-12.75975802 11.67042347 -13.00769037 7.43828332 -12 3 C-8.38977815 -0.61022185 -4.85674037 -0.8658533 0 0 Z " fill="#161616" transform="translate(49,45)"/>
<path d="M0 0 C2.64 0 5.28 0 8 0 C8 4.95 8 9.9 8 15 C8.99 15 9.98 15 11 15 C11 15.66 11 16.32 11 17 C9.08404032 17.08133791 7.16708068 17.13934367 5.25 17.1875 C3.64898437 17.23970703 3.64898437 17.23970703 2.015625 17.29296875 C-1.40261374 16.96088597 -2.75017262 16.59595467 -5 14 C-5.390625 11.08203125 -5.390625 11.08203125 -5.25 7.8125 C-5.21390625 6.72582031 -5.1778125 5.63914062 -5.140625 4.51953125 C-5.09421875 3.68808594 -5.0478125 2.85664062 -5 2 C-3.35 2 -1.7 2 0 2 C0 1.34 0 0.68 0 0 Z " fill="#EAEAEA" transform="translate(195,45)"/>
<path d="M0 0 C3.625 0.125 3.625 0.125 6.625 1.125 C8.00726016 3.88952033 7.72025387 6.1711363 7.6875 9.25 C7.67847656 10.34570312 7.66945312 11.44140625 7.66015625 12.5703125 C7.64855469 13.41335937 7.63695312 14.25640625 7.625 15.125 C8.285 15.125 8.945 15.125 9.625 15.125 C9.625 15.785 9.625 16.445 9.625 17.125 C7.645 17.125 5.665 17.125 3.625 17.125 C3.625 16.465 3.625 15.805 3.625 15.125 C2.635 15.785 1.645 16.445 0.625 17.125 C-1.9375 17.375 -1.9375 17.375 -4.375 17.125 C-6.375 15.125 -6.375 15.125 -6.5 12 C-6.45875 11.05125 -6.4175 10.1025 -6.375 9.125 C-3.00402617 7.62678941 -1.17057881 7.125 2.625 7.125 C2.625 5.475 2.625 3.825 2.625 2.125 C-0.49285113 2.77144661 -0.49285113 2.77144661 -1.375 5.125 C-2.695 5.125 -4.015 5.125 -5.375 5.125 C-4.25331325 0.15753012 -4.25331325 0.15753012 0 0 Z " fill="#070707" transform="translate(158.375,44.875)"/>
<path d="M0 0 C6.6 0 13.2 0 20 0 C20 1.98 20 3.96 20 6 C19.34 6 18.68 6 18 6 C17.67 5.01 17.34 4.02 17 3 C15.68 2.67 14.36 2.34 13 2 C13 8.27 13 14.54 13 21 C13.99 21 14.98 21 16 21 C16 21.66 16 22.32 16 23 C12.37 23 8.74 23 5 23 C5 22.34 5 21.68 5 21 C5.99 21 6.98 21 8 21 C8 14.73 8 8.46 8 2 C6.35 2 4.7 2 3 2 C3 3.32 3 4.64 3 6 C2.01 6 1.02 6 0 6 C0 4.02 0 2.04 0 0 Z " fill="#090909" transform="translate(113,39)"/>
<path d="M0 0 C3.5 0.1875 3.5 0.1875 5.5 1.1875 C5.5 2.1775 5.5 3.1675 5.5 4.1875 C2.53 3.6925 2.53 3.6925 -0.5 3.1875 C-0.83 4.5075 -1.16 5.8275 -1.5 7.1875 C0.15 7.1875 1.8 7.1875 3.5 7.1875 C3.5 7.8475 3.5 8.5075 3.5 9.1875 C1.85 9.1875 0.2 9.1875 -1.5 9.1875 C-1.41284983 11.12583996 -1.30467036 13.0632429 -1.1875 15 C-1.12949219 16.07894531 -1.07148438 17.15789063 -1.01171875 18.26953125 C-0.72699373 21.53484434 -0.72699373 21.53484434 2.5 24.1875 C-1.13 24.1875 -4.76 24.1875 -8.5 24.1875 C-7.51 22.7025 -7.51 22.7025 -6.5 21.1875 C-6.04084493 18.21907342 -6.04084493 18.21907342 -5.875 15 C-5.80023438 13.91332031 -5.72546875 12.82664062 -5.6484375 11.70703125 C-5.59945312 10.87558594 -5.55046875 10.04414062 -5.5 9.1875 C-6.49 9.1875 -7.48 9.1875 -8.5 9.1875 C-8.5 8.5275 -8.5 7.8675 -8.5 7.1875 C-7.51 7.1875 -6.52 7.1875 -5.5 7.1875 C-5.561875 6.011875 -5.561875 6.011875 -5.625 4.8125 C-5.42184296 0.54620207 -4.12325143 0.22088847 0 0 Z " fill="#040404" transform="translate(191.5,37.8125)"/>
<path d="M0 0 C3.5 0.1875 3.5 0.1875 5.5 1.1875 C5.5 2.1775 5.5 3.1675 5.5 4.1875 C2.53 3.6925 2.53 3.6925 -0.5 3.1875 C-0.83 4.5075 -1.16 5.8275 -1.5 7.1875 C0.15 7.1875 1.8 7.1875 3.5 7.1875 C3.5 7.8475 3.5 8.5075 3.5 9.1875 C1.85 9.1875 0.2 9.1875 -1.5 9.1875 C-1.41284983 11.12583996 -1.30467036 13.0632429 -1.1875 15 C-1.12949219 16.07894531 -1.07148438 17.15789063 -1.01171875 18.26953125 C-0.72699373 21.53484434 -0.72699373 21.53484434 2.5 24.1875 C-1.13 24.1875 -4.76 24.1875 -8.5 24.1875 C-7.51 22.7025 -7.51 22.7025 -6.5 21.1875 C-6.04084493 18.21907342 -6.04084493 18.21907342 -5.875 15 C-5.80023438 13.91332031 -5.72546875 12.82664062 -5.6484375 11.70703125 C-5.59945312 10.87558594 -5.55046875 10.04414062 -5.5 9.1875 C-6.49 9.1875 -7.48 9.1875 -8.5 9.1875 C-8.5 8.5275 -8.5 7.8675 -8.5 7.1875 C-7.51 7.1875 -6.52 7.1875 -5.5 7.1875 C-5.561875 6.011875 -5.561875 6.011875 -5.625 4.8125 C-5.42184296 0.54620207 -4.12325143 0.22088847 0 0 Z " fill="#040404" transform="translate(178.5,37.8125)"/>
<path d="M0 0 C2.4375 1 2.4375 1 4 2 C4 2.99 4 3.98 4 5 C2.35 5.33 0.7 5.66 -1 6 C-1 4.68 -1 3.36 -1 2 C-1.99 2.33 -2.98 2.66 -4 3 C-4 6.3 -4 9.6 -4 13 C-1.03 13.495 -1.03 13.495 2 14 C2 13.34 2 12.68 2 12 C2.66 12 3.32 12 4 12 C3.67 13.32 3.34 14.64 3 16 C-4.33333333 17.22222222 -4.33333333 17.22222222 -7.4375 16.1875 C-9 15 -9 15 -10 13 C-10.14640501 11.35857459 -10.22096589 9.7101859 -10.25 8.0625 C-10.27578125 7.18722656 -10.3015625 6.31195313 -10.328125 5.41015625 C-10 3 -10 3 -8.69921875 1.203125 C-5.88819312 -0.78721039 -3.32903859 -0.29202093 0 0 Z " fill="#1C1C1C" transform="translate(218,45)"/>
<path d="M0 0 C4.66666667 0 9.33333333 0 14 0 C14.33 1.65 14.66 3.3 15 5 C13.68 5 12.36 5 11 5 C11 4.34 11 3.68 11 3 C10.01 3 9.02 3 8 3 C7.67 6.96 7.34 10.92 7 15 C7.99 15.33 8.98 15.66 10 16 C10 16.33 10 16.66 10 17 C6.7 17 3.4 17 0 17 C0 16.34 0 15.68 0 15 C0.66 15 1.32 15 2 15 C2 10.71 2 6.42 2 2 C1.34 2 0.68 2 0 2 C0 1.34 0 0.68 0 0 Z " fill="#0A0A0A" transform="translate(135,45)"/>
<path d="M0 0 C4.66666667 0 9.33333333 0 14 0 C14.33 1.65 14.66 3.3 15 5 C13.68 5 12.36 5 11 5 C11 4.34 11 3.68 11 3 C10.01 3 9.02 3 8 3 C7.67 6.96 7.34 10.92 7 15 C7.99 15.33 8.98 15.66 10 16 C10 16.33 10 16.66 10 17 C6.7 17 3.4 17 0 17 C0 16.34 0 15.68 0 15 C0.66 15 1.32 15 2 15 C2 10.71 2 6.42 2 2 C1.34 2 0.68 2 0 2 C0 1.34 0 0.68 0 0 Z " fill="#0A0A0A" transform="translate(89,45)"/>
<path d="M0 0 C0 1.32 0 2.64 0 4 C1.32 4 2.64 4 4 4 C4 4.66 4 5.32 4 6 C2.68 6 1.36 6 0 6 C0.0868748 7.95917659 0.19504512 9.91741871 0.3125 11.875 C0.37050781 12.96554688 0.42851563 14.05609375 0.48828125 15.1796875 C0.65714844 16.11039063 0.82601562 17.04109375 1 18 C1.99 18.66 2.98 19.32 4 20 C3 21 3 21 0.0625 21.1875 C-3 21 -3 21 -5 19 C-5.1953125 15.9609375 -5.1953125 15.9609375 -5.125 12.375 C-5.10695312 11.18648437 -5.08890625 9.99796875 -5.0703125 8.7734375 C-5.04710937 7.85820313 -5.02390625 6.94296875 -5 6 C-5.66 6 -6.32 6 -7 6 C-7 4 -7 4 -5.1875 1.875 C-3 0 -3 0 0 0 Z " fill="#0E0E0E" transform="translate(63,41)"/>
<path d="M0 0 C2.31 0 4.62 0 7 0 C7 4.95 7 9.9 7 15 C7.99 15 8.98 15 10 15 C10 15.66 10 16.32 10 17 C6.7 17 3.4 17 0 17 C0 16.34 0 15.68 0 15 C0.66 15 1.32 15 2 15 C2 10.71 2 6.42 2 2 C1.34 2 0.68 2 0 2 C0 1.34 0 0.68 0 0 Z " fill="#0B0B0B" transform="translate(196,45)"/>
<path d="M0 0 C2.6875 0.3125 2.6875 0.3125 5 1.8125 C7.33194288 5.2672302 7.44496029 8.32794328 6.6875 12.3125 C5.1875 15.3125 5.1875 15.3125 2.6875 17.3125 C-0.11454162 17.72425039 -2.45565872 17.55057011 -5.3125 17.3125 C-3.36033565 15.36033565 -1.78050047 14.46423355 0.6875 13.3125 C0.91643297 10.27913814 1.05225845 7.33784949 0.6875 4.3125 C-1.13521927 2.18894433 -1.13521927 2.18894433 -3.3125 1.3125 C-2.3125 0.3125 -2.3125 0.3125 0 0 Z " fill="#101010" transform="translate(79.3125,44.6875)"/>
<path d="M0 0 C2.6875 0.3125 2.6875 0.3125 5 1.8125 C7.33194288 5.2672302 7.44496029 8.32794328 6.6875 12.3125 C5.1875 15.3125 5.1875 15.3125 2.6875 17.3125 C-0.11454162 17.72425039 -2.45565872 17.55057011 -5.3125 17.3125 C-3.36033565 15.36033565 -1.78050047 14.46423355 0.6875 13.3125 C0.91643297 10.27913814 1.05225845 7.33784949 0.6875 4.3125 C-1.13521927 2.18894433 -1.13521927 2.18894433 -3.3125 1.3125 C-2.3125 0.3125 -2.3125 0.3125 0 0 Z " fill="#101010" transform="translate(46.3125,44.6875)"/>
<path d="M0 0 C3.69230769 0.69230769 3.69230769 0.69230769 5 2 C5.16796875 3.99609375 5.16796875 3.99609375 5.1875 6.4375 C5.20167969 7.24058594 5.21585937 8.04367188 5.23046875 8.87109375 C5 11 5 11 3 13 C0.875 12.625 0.875 12.625 -1 12 C-1.02687279 10.18757948 -1.04633715 8.37504767 -1.0625 6.5625 C-1.07410156 5.55316406 -1.08570312 4.54382812 -1.09765625 3.50390625 C-1 1 -1 1 0 0 Z " fill="#F7F7F7" transform="translate(76,47)"/>
<path d="M0 0 C3.69230769 0.69230769 3.69230769 0.69230769 5 2 C5.16796875 3.99609375 5.16796875 3.99609375 5.1875 6.4375 C5.20167969 7.24058594 5.21585938 8.04367188 5.23046875 8.87109375 C5 11 5 11 3 13 C0.875 12.625 0.875 12.625 -1 12 C-1.02687279 10.18757948 -1.04633715 8.37504767 -1.0625 6.5625 C-1.07410156 5.55316406 -1.08570313 4.54382812 -1.09765625 3.50390625 C-1 1 -1 1 0 0 Z " fill="#F7F7F7" transform="translate(43,47)"/>
<path d="M0 0 C2.69082872 0.17635452 5.32851446 0.61835921 8 1 C7.125 7.875 7.125 7.875 6 9 C3.5625 9.1875 3.5625 9.1875 1 9 C-1 7 -1 7 -1.1875 3.9375 C-1 1 -1 1 0 0 Z " fill="#151515" transform="translate(153,53)"/>
<path d="M0 0 C2 2 2 2 2 6 C1.01 6 0.02 6 -1 6 C-1.33 6.66 -1.66 7.32 -2 8 C-2 7.34 -2 6.68 -2 6 C-3.65 6 -5.3 6 -7 6 C-6.67 4.35 -6.34 2.7 -6 1 C-4.02 1.66 -2.04 2.32 0 3 C0 2.01 0 1.02 0 0 Z " fill="#D6D6D6" transform="translate(184,39)"/>
<path d="M0 0 C2.66666667 0 5.33333333 0 8 0 C8.33 1.65 8.66 3.3 9 5 C7.68 5 6.36 5 5 5 C5 4.34 5 3.68 5 3 C3.35 3 1.7 3 0 3 C0 2.01 0 1.02 0 0 Z " fill="#171717" transform="translate(141,45)"/>
<path d="M0 0 C2.66666667 0 5.33333333 0 8 0 C8.33 1.65 8.66 3.3 9 5 C7.68 5 6.36 5 5 5 C5 4.34 5 3.68 5 3 C3.35 3 1.7 3 0 3 C0 2.01 0 1.02 0 0 Z " fill="#171717" transform="translate(95,45)"/>
<path d="M0 0 C0.99 0 1.98 0 3 0 C3 1.65 3 3.3 3 5 C0.03 4.505 0.03 4.505 -3 4 C-2.34 3.67 -1.68 3.34 -1 3 C-0.67 2.01 -0.34 1.02 0 0 Z " fill="#E4E4E4" transform="translate(158,47)"/>
<path d="M0 0 C1.98 0.495 1.98 0.495 4 1 C3.67 2.32 3.34 3.64 3 5 C1.68 4.67 0.36 4.34 -1 4 C-0.67 2.68 -0.34 1.36 0 0 Z " fill="#040404" transform="translate(199,37)"/>
<path d="M0 0 C1.32 0 2.64 0 4 0 C3.67 1.65 3.34 3.3 3 5 C2.01 5 1.02 5 0 5 C0 3.35 0 1.7 0 0 Z " fill="#F7F7F7" transform="translate(157,54)"/>
<path d="M0 0 C0.99 0.33 1.98 0.66 3 1 C2.67 2.32 2.34 3.64 2 5 C0.68 5 -0.64 5 -2 5 C-1.125 1.125 -1.125 1.125 0 0 Z " fill="#0E0E0E" transform="translate(155,45)"/>
</svg>
